<svg xmlns="http://www.w3.org/2000/svg" preserveAspectRatio="none" width="320" height="200" xmlns:v="https://vecta.io/nano" class="eAnim">
  <style>
    <![CDATA[
    .B {
      stroke: #000
    }

    .C {
      stroke-width: 2
    }

    .D {
      stroke-linejoin: round
    }

    .E {
      fill: none
    }

    .F {
      stroke-linecap: round
    }

    @media (prefers-reduced-motion:no-preference) {
      :not(.c-prefers-reduced-motion) {
        .croma {
            animation: rotate 6s linear infinite, alpha1 6s ease infinite;
            transform-origin:center;
        }

        .asterisk {
            animation: alpha2 6s ease infinite;
            transform-origin:center;
        }

        .eye {
            animation: alpha3 6s ease infinite;
            transform-origin:center;
        }
      }
    }

    @keyframes rotate {
        from {
            transform: rotate(0deg);
        }
        to {
            transform: rotate(360deg);
        }
    }

    @keyframes alpha1 {
        0%{
            opacity: 0;
        }
        15%, 25% {
            opacity: 1;
        }
        35%, 100% {
            opacity: 0;
        }
    }

    @keyframes alpha2 {
        0% , 25% {
            opacity: 0;
        }
        35%, 55%{
            opacity: 1;
            filter: blur(2px);
        }
        40%, 60%{
            filter: blur(0px);
        }
        65%, 100% {
            opacity: 0;
        }
    }

    @keyframes alpha3 {
        10% , 55% {
            opacity: 0;
        }
        85%{
            opacity: 1;
        }
    }
    ]]>
  </style>
  <defs>
    <path fill="#000" stroke="none" d="M380.85 387.25q-1.25-2.45-1.35-5.2-3.7 7.25-3.7 15.3 0 13.8 9.75 23.55 9.75 9.75 23.55 9.75 13.8 0 23.55-9.75 9.75-9.8 9.75-23.55 0-13.8-9.75-23.55-9.75-9.75-23.55-9.75-10.25 0-18.65 5.7 4.4-.45 8.15 2.2 4.1 2.9 4.9 7.85.8 4.95-2.1 9-2.9 4.05-7.85 4.85-4.95.8-9.05-2.15-2.3-1.7-3.65-4.25m53.25 17.55q.2 1.25-.55 2.35-.8 1.05-2.05 1.25-1.3.2-2.4-.55-1.05-.8-1.25-2.05-.25-1.3.55-2.4.75-1.05 2.05-1.25 1.3-.2 2.35.55 1.05.8 1.3 2.1m-6.6 7.85q.4 2.35-1 4.25-1.35 1.9-3.65 2.3-2.35.35-4.25-1.05-1.9-1.4-2.3-3.7-.35-2.3 1-4.2 1.4-1.9 3.7-2.3 2.35-.35 4.25 1 1.9 1.4 2.25 3.7z" id="A" />
    <g id="B" stroke="none">
      <path fill="#c00" d="M121.4 60.4q-5.35 5.35-8.95 11.45Q105 84.4 105 100q0 15.6 7.4 28.1l48.65-28.1v-.05V44q-23.25 0-39.65 16.4z" />
      <path fill="#390" d="M200.6 139.6q5.45-5.4 9.1-11.55L161.1 100h-.05l-48.65 28.1q3.6 6.15 9 11.5 16.4 16.45 39.65 16.45 23.2 0 39.55-16.45z" />
      <path fill="#03c" d="M209.65 71.95Q206 65.8 200.6 60.4 184.25 44 161.05 44v55.95l.05.05 48.6 28.05q7.35-12.5 7.35-28.05 0-15.55-7.4-28.05z" />
    </g>
    <path id="F" d="M409.1 364.05q-10.25 0-18.65 5.7 4.4-.45 8.15 2.2 4.1 2.9 4.9 7.85.8 4.95-2.1 9-2.9 4.05-7.85 4.85-4.95.8-9.05-2.15-2.3-1.7-3.65-4.25-1.25-2.45-1.35-5.2-3.7 7.25-3.7 15.3 0 13.8 9.75 23.55 9.75 9.75 23.55 9.75 13.8 0 23.55-9.75 9.75-9.8 9.75-23.55 0-13.8-9.75-23.55-9.75-9.75-23.55-9.75zm20 43.8q-1.05-.8-1.25-2.05-.25-1.3.55-2.4.75-1.05 2.05-1.25 1.3-.2 2.35.55 1.05.8 1.3 2.1.2 1.25-.55 2.35-.8 1.05-2.05 1.25-1.3.2-2.4-.55zm-2.6 9.05q-1.35 1.9-3.65 2.3-2.35.35-4.25-1.05-1.9-1.4-2.3-3.7-.35-2.3 1-4.2 1.4-1.9 3.7-2.3 2.35-.35 4.25 1 1.9 1.4 2.25 3.7.4 2.35-1 4.25z" class="B C D E" />
    <path fill="#000" stroke="none" d="M-121.85 1060.3q-1.9 0-3.2 1.45-1.25 1.45-1.25 3.6 0 1.05 2.35 7.3.9 2.55.95 4.5v1.9q-1.9-.65-9.3-5.9-2.55-1.8-4.6-1.8-1.95 0-3.2 1.15-1.2 1.1-1.2 3.05 0 4.8 7.05 4.8l7.5.2 2.8.75q-2 2.35-6 5.15-5.25 3.75-5.25 6.55 0 2 1.25 3.15 1.25 1.15 3.35 1.15 3.75 0 5.15-4.85 2.15-7.5 3.6-9.45 1.3 1.75 3.65 9.45 1.6 4.85 5.15 4.85 1.9 0 3.1-1.4 1.2-1.4 1.2-3.2 0-2.8-3.75-5.3-5.5-3.7-7.55-6.1 3.05-.95 6.05-.95h4.6q6.95 0 6.95-4.6 0-2.05-1.3-3.25-1.3-1.25-3.2-1.25-2.25 0-6.3 3.3-4.4 3.65-7.5 4.5 0-4.05 1.7-8.55 1.7-4.5 1.7-5.5 0-1.9-1.3-3.3-1.35-1.4-3.2-1.4z" id="C" class="asterisk" />
    <path id="D" d="M161.25 171.05H161q-41.7 0-76.8-18.25-34.95-18.15-51.75-48.35l-2.3-4.4q.123-.25.25-.5 2.906-5.832 6.55-11.25 4.45-6.65 10.15-12.9 5.35-5.85 11.5-11.05 3.4-2.95 7.7-6 5.2-3.85 11.5-7.55 4.15-2.4 7.7-4.15Q90.7 44 97 41.35q5.1-2 7.7-2.9 5.85-2.05 11.5-3.55 2.55-.7 7.65-1.9 5.7-1.2 11.55-2.1 4.75-.65 7.65-.95 6.35-.65 11.55-.8 3-.15 6.1-.15h1.55q6.2.1 11.5.5 3.85.2 7.7.75 5.5.55 11.5 1.75 3.4.6 7.7 1.6 5.95 1.35 11.5 3.15 3.3 1 7.7 2.6 5.7 2.1 11.5 4.8 4.05 1.9 7.7 3.8 6.25 3.3 11.5 6.8 5.3 3.6 7.8 5.5 6.6 5.1 11.4 9.85 4.2 4.05 7.7 8.2 3.8 4.45 7.6 10 2.1 3.3 2.4 3.8 2.117 3.481 4.15 7.45.123.249.25.5l-2.35 4.4q-16.7 30.1-51.65 48.3-35.05 18.25-76.6 18.3z" class="B C D E" />
    <path id="E" d="M217.05 100q0 23.25-16.45 39.6-16.35 16.45-39.55 16.45-23.25 0-39.65-16.45Q105 123.25 105 100q0-23.2 16.4-39.6Q137.8 44 161.05 44q23.2 0 39.55 16.4 16.45 16.4 16.45 39.6z" class="B C D E" />
    <path id="H" d="M30.2 98.3q132.8-108.55 261.7 0" class="B C D E F" />
  </defs>
  <use href="#D" x="-1" />
  <use href="#E" x="-1" y="1.5" />
  <g transform="translate(-248.7 -296.3)" class="eye">
    <use href="#A" />
    <use href="#F" />
  </g>
  <g transform="translate(-1 1.5)" class="croma">
    <use href="#B" />
    <use href="#G" />
  </g>
  <use href="#E" x="-1" y="1.5" />
  <use href="#C" transform="matrix(2.028259 0 0 2.028259 407.35 -2089.3)" />
  <use href="#H" x="-1.05" y="1.5" />
</svg>