<?xml version="1.0" encoding="UTF-8"?>
<svg xmlns="http://www.w3.org/2000/svg" xmlns:xlink="http://www.w3.org/1999/xlink" version="1.1" preserveAspectRatio="none" x="0px" y="0px" width="800px" height="365px" viewBox="0 0 800 365" class="kAnim">
<defs>
<style>
<![CDATA[
    #j, #i, #h, #g, #f, #e, #d, #b, #c {
        fill: #8361F5;
        fill: white;
    }
]]>
</style>
<g id="j">
<path d="m40 91.5q-5 0-8.5 3.55-3.5 3.5-3.5 8.45v16q0 1.7 1.15 2.85t2.85 1.15h44q1.65 0 2.85-1.15 1.15-1.15 1.15-2.85v-24q0-1.65-1.15-2.8-1.2-1.2-2.85-1.2h-36z"/>
</g>
<g id="i">
<path d="m573 206.5q0-1.65-1.15-2.8-1.2-1.2-2.85-1.2h-53q-1.7 0-2.85 1.2-1.15 1.15-1.15 2.8v24q0 1.7 1.15 2.85t2.85 1.15h53q1.65 0 2.85-1.15 1.15-1.15 1.15-2.85v-24z"/>
</g>
<g id="h">
<path d="m108 243.5q0-1.65-1.15-2.8-1.2-1.2-2.85-1.2h-72q-1.7 0-2.85 1.2-1.15 1.15-1.15 2.8v24q0 1.7 1.15 2.85t2.85 1.15h72q1.65 0 2.85-1.15 1.15-1.15 1.15-2.85v-24z"/>
</g>
<g id="g">
<path d="m32 165.5q-1.7 0-2.85 1.2-1.15 1.15-1.15 2.8v24q0 1.7 1.15 2.85t2.85 1.15h44q1.65 0 2.85-1.15 1.15-1.15 1.15-2.85v-24q0-1.65-1.15-2.8-1.2-1.2-2.85-1.2h-44z"/>
</g>
<g id="f">
<path d="m374 280.5q0-1.65-1.15-2.8-1.2-1.2-2.85-1.2h-176q-1.7 0-2.85 1.2-1.15 1.15-1.15 2.8v24q0 1.7 1.15 2.85t2.85 1.15h176q1.65 0 2.85-1.15 1.15-1.15 1.15-2.85v-24z"/>
</g>
<g id="e">
<path d="m470 276.5q-1.7 0-2.85 1.2-1.15 1.15-1.15 2.8v24q0 1.7 1.15 2.85t2.85 1.15h24q1.65 0 2.85-1.15 1.15-1.15 1.15-2.85v-24q0-1.65-1.15-2.8-1.2-1.2-2.85-1.2h-24z"/>
</g>
<g id="d">
<path d="m573 280.5q0-1.65-1.15-2.8-1.2-1.2-2.85-1.2h-24q-1.7 0-2.85 1.2-1.15 1.15-1.15 2.8v24q0 1.7 1.15 2.85t2.85 1.15h16q4.95 0 8.5-3.5 3.5-3.5 3.5-8.5v-16z"/>
</g>
<g id="c">
<path d="m840.05 269.9q-2.35 0-3.9 1.65-1.6 1.55-1.6 3.8v17.4h43.95v-17.4q0-2.25-1.55-3.8-1.65-1.65-3.95-1.65h-32.95z"/>
</g>
<g id="b">
<path d="m726 322.35v-15.6h-43.95v15.6q0 2.3 1.6 3.9 1.55 1.55 3.9 1.55h32.95q2.3 0 3.95-1.55 1.55-1.6 1.55-3.9z"/>
</g>
<path id="a" d="m771.2 73.95h-32.95q-2.35 0-3.9-1.6-1.6-1.55-1.6-3.9v-32.95q0-2.25 1.6-3.85 1.55-1.65 3.9-1.65h21.95q6.8 0 11.7 4.9 4.8 4.8 4.8 11.6v21.95q0 2.35-1.55 3.9-1.65 1.6-3.95 1.6zm-11 262.3h-716.85q-9.65 0-16.45-6.8-6.9-6.85-6.9-16.55v-267.8q0-9.6 6.9-16.45 6.8-6.9 16.45-6.9h716.85q9.65 0 16.5 6.9 6.85 6.85 6.85 16.45v267.8q0 9.7-6.85 16.55-6.85 6.8-16.5 6.8zm11-211.5h-60.4q-2.35 0-3.95-1.55-1.55-1.6-1.55-3.95v-32.95q0-2.25 1.55-3.85 1.6-1.65 3.95-1.65h60.4q2.3 0 3.95 1.65 1.55 1.6 1.55 3.85v32.95q0 2.35-1.55 3.95-1.65 1.55-3.95 1.55zm-52.15-50.8h-33q-2.3 0-3.9-1.6-1.6-1.55-1.6-3.9v-32.95q0-2.25 1.6-3.85 1.6-1.65 3.9-1.65h33q2.25 0 3.9 1.65 1.55 1.6 1.55 3.85v32.95q0 2.35-1.55 3.9-1.65 1.6-3.9 1.6zm-52.2 0h-32.95q-2.35 0-3.95-1.6-1.55-1.55-1.55-3.9v-32.95q0-2.25 1.55-3.85 1.6-1.65 3.95-1.65h32.95q2.25 0 3.9 1.65 1.6 1.6 1.6 3.85v32.95q0 2.35-1.6 3.9-1.65 1.6-3.9 1.6zm26.1 50.8h-33q-2.3 0-3.9-1.55-1.55-1.6-1.55-3.95v-32.95q0-2.25 1.55-3.85 1.6-1.65 3.9-1.65h33q2.25 0 3.9 1.65 1.6 1.6 1.6 3.85v32.95q0 2.35-1.6 3.95-1.65 1.55-3.9 1.55zm-6.9 50.85h33q2.25 0 3.9-1.6 1.55-1.6 1.55-3.9v-32.95q0-2.3-1.55-3.85-1.65-1.65-3.9-1.65h-33q-2.3 0-3.9 1.65-1.6 1.55-1.6 3.85v32.95q0 2.3 1.6 3.9t3.9 1.6zm-52.15 0h32.95q2.25 0 3.9-1.6 1.6-1.6 1.6-3.9v-32.95q0-2.3-1.6-3.85-1.65-1.65-3.9-1.65h-32.95q-2.35 0-3.95 1.65-1.55 1.55-1.55 3.85v32.95q0 2.3 1.55 3.9 1.6 1.6 3.95 1.6zm12.35 50.8h32.95q2.25 0 3.9-1.6 1.6-1.55 1.6-3.9v-32.95q0-2.3-1.6-3.85-1.65-1.65-3.9-1.65h-32.95q-2.35 0-3.9 1.65-1.6 1.55-1.6 3.85v32.95q0 2.35 1.6 3.9 1.55 1.6 3.9 1.6zm52.2 0h72.75q2.3 0 3.95-1.6 1.55-1.55 1.55-3.9v-32.95q0-2.3-1.55-3.85-1.65-1.65-3.95-1.65h-72.75q-2.35 0-3.95 1.65-1.55 1.55-1.55 3.85v32.95q0 2.35 1.55 3.9 1.6 1.6 3.95 1.6zm39.8-50.8h32.95q2.3 0 3.95-1.6 1.55-1.6 1.55-3.9v-32.95q0-2.3-1.55-3.85-1.65-1.65-3.95-1.65h-32.95q-2.35 0-3.9 1.65-1.6 1.55-1.6 3.85v32.95q0 2.3 1.6 3.9 1.55 1.6 3.9 1.6zm-64.55 101.6h97.5q2.3 0 3.95-1.6 1.55-1.55 1.55-3.9v-32.95q0-2.25-1.55-3.85-1.65-1.65-3.95-1.65h-97.5q-2.35 0-3.9 1.65-1.6 1.6-1.6 3.85v32.95q0 2.35 1.6 3.9 1.55 1.6 3.9 1.6zm97.5 6.85h-32.95q-2.35 0-3.9 1.65-1.6 1.6-1.6 3.85v32.95q0 2.35 1.6 3.95 1.55 1.55 3.9 1.55h21.95q6.8 0 11.7-4.8 4.8-4.8 4.8-11.65v-22q0-2.25-1.55-3.85-1.65-1.65-3.95-1.65zm-149.7-6.85h33q2.25 0 3.9-1.6 1.55-1.55 1.55-3.9v-32.95q0-2.25-1.55-3.85-1.65-1.65-3.9-1.65h-33q-2.3 0-3.9 1.65-1.55 1.6-1.55 3.85v32.95q0 2.35 1.55 3.9 1.6 1.6 3.9 1.6zm46.7 6.85h-32.95q-2.35 0-3.9 1.65-1.6 1.6-1.6 3.85v32.95q0 2.35 1.6 3.95 1.55 1.55 3.9 1.55h32.95q2.3 0 3.95-1.55 1.55-1.6 1.55-3.95v-32.95q0-2.25-1.55-3.85-1.65-1.65-3.95-1.65zm52.2 0h-32.95q-2.35 0-3.9 1.65-1.6 1.6-1.6 3.85v16.5h43.95v-16.5q0-2.25-1.6-3.85-1.65-1.65-3.9-1.65zm-38.45 22v16.45q0 2.35 1.6 3.95 1.55 1.55 3.9 1.55h32.95q2.25 0 3.9-1.55 1.6-1.6 1.6-3.95v-16.45m-111.25-232.1h-32.95q-2.35 0-3.9-1.6-1.6-1.55-1.6-3.9v-32.95q0-2.25 1.6-3.85 1.55-1.65 3.9-1.65h32.95q2.25 0 3.9 1.65 1.6 1.6 1.6 3.85v32.95q0 2.35-1.6 3.9-1.65 1.6-3.9 1.6zm-26.1 50.8h-32.95q-2.35 0-3.9-1.55-1.6-1.6-1.6-3.95v-32.95q0-2.25 1.6-3.85 1.55-1.65 3.9-1.65h32.95q2.3 0 3.95 1.65 1.55 1.6 1.55 3.85v32.95q0 2.35-1.55 3.95-1.65 1.55-3.95 1.55zm52.2 0h-32.95q-2.35 0-3.95-1.55-1.55-1.6-1.55-3.95v-32.95q0-2.25 1.55-3.85 1.6-1.65 3.95-1.65h32.95q2.25 0 3.9 1.65 1.6 1.6 1.6 3.85v32.95q0 2.35-1.6 3.95-1.65 1.55-3.9 1.55zm-78.3-50.8h-32.95q-2.35 0-3.9-1.6-1.6-1.55-1.6-3.9v-32.95q0-2.25 1.6-3.85 1.55-1.65 3.9-1.65h32.95q2.3 0 3.95 1.65 1.55 1.6 1.55 3.85v32.95q0 2.35-1.55 3.9-1.65 1.6-3.95 1.6zm-52.15 0h-33q-2.3 0-3.9-1.6-1.55-1.55-1.55-3.9v-32.95q0-2.25 1.55-3.85 1.6-1.65 3.9-1.65h33q2.25 0 3.9 1.65 1.6 1.6 1.6 3.85v32.95q0 2.35-1.6 3.9-1.65 1.6-3.9 1.6zm-26.1 50.8h-32.95q-2.35 0-3.95-1.55-1.55-1.6-1.55-3.95v-32.95q0-2.25 1.55-3.85 1.6-1.65 3.95-1.65h32.95q2.25 0 3.9 1.65 1.6 1.6 1.6 3.85v32.95q0 2.35-1.6 3.95-1.65 1.55-3.9 1.55zm52.2 0h-33q-2.3 0-3.9-1.55-1.6-1.6-1.6-3.95v-32.95q0-2.25 1.6-3.85 1.6-1.65 3.9-1.65h33q2.25 0 3.9 1.65 1.55 1.6 1.55 3.85v32.95q0 2.35-1.55 3.95-1.65 1.55-3.9 1.55zm-6.9 50.85h32.95q2.3 0 3.95-1.6 1.55-1.6 1.55-3.9v-32.95q0-2.3-1.55-3.85-1.65-1.65-3.95-1.65h-32.95q-2.35 0-3.9 1.65-1.6 1.55-1.6 3.85v32.95q0 2.3 1.6 3.9 1.55 1.6 3.9 1.6zm-52.2 0h33q2.25 0 3.9-1.6 1.6-1.6 1.6-3.9v-32.95q0-2.3-1.6-3.85-1.65-1.65-3.9-1.65h-33q-2.3 0-3.9 1.65-1.55 1.55-1.55 3.85v32.95q0 2.3 1.55 3.9 1.6 1.6 3.9 1.6zm12.4 50.8h32.95q2.25 0 3.9-1.6 1.6-1.55 1.6-3.9v-32.95q0-2.3-1.6-3.85-1.65-1.65-3.9-1.65h-32.95q-2.35 0-3.95 1.65-1.55 1.55-1.55 3.85v32.95q0 2.35 1.55 3.9 1.6 1.6 3.95 1.6zm52.15 0h33q2.25 0 3.9-1.6 1.55-1.55 1.55-3.9v-32.95q0-2.3-1.55-3.85-1.65-1.65-3.9-1.65h-33q-2.3 0-3.9 1.65-1.55 1.55-1.55 3.85v32.95q0 2.35 1.55 3.9 1.6 1.6 3.9 1.6zm39.85-50.8h32.95q2.25 0 3.9-1.6 1.6-1.6 1.6-3.9v-32.95q0-2.3-1.6-3.85-1.65-1.65-3.9-1.65h-32.95q-2.35 0-3.9 1.65-1.6 1.55-1.6 3.85v32.95q0 2.3 1.6 3.9 1.55 1.6 3.9 1.6zm12.35 50.8h32.95q2.3 0 3.95-1.6 1.55-1.55 1.55-3.9v-32.95q0-2.3-1.55-3.85-1.65-1.65-3.95-1.65h-32.95q-2.35 0-3.9 1.65-1.6 1.55-1.6 3.85v32.95q0 2.35 1.6 3.9 1.55 1.6 3.9 1.6zm-135.95-152.45h-32.95q-2.35 0-3.95-1.6-1.55-1.55-1.55-3.9v-32.95q0-2.25 1.55-3.85 1.6-1.65 3.95-1.65h32.95q2.25 0 3.9 1.65 1.6 1.6 1.6 3.85v32.95q0 2.35-1.6 3.9-1.65 1.6-3.9 1.6zm-52.2 0h-32.95q-2.35 0-3.9-1.6-1.6-1.55-1.6-3.9v-32.95q0-2.25 1.6-3.85 1.55-1.65 3.9-1.65h32.95q2.3 0 3.95 1.65 1.55 1.6 1.55 3.85v32.95q0 2.35-1.55 3.9-1.65 1.6-3.95 1.6zm26.1 50.8h-32.95q-2.35 0-3.9-1.55-1.6-1.6-1.6-3.95v-32.95q0-2.25 1.6-3.85 1.55-1.65 3.9-1.65h32.95q2.25 0 3.9 1.65 1.6 1.6 1.6 3.85v32.95q0 2.35-1.6 3.95-1.65 1.55-3.9 1.55zm-78.25-50.8h-33q-2.3 0-3.9-1.6-1.6-1.55-1.6-3.9v-32.95q0-2.25 1.6-3.85 1.6-1.65 3.9-1.65h33q2.25 0 3.9 1.65 1.55 1.6 1.55 3.85v32.95q0 2.35-1.55 3.9-1.65 1.6-3.9 1.6zm-26.1 50.8h-33q-2.3 0-3.9-1.55-1.55-1.6-1.55-3.95v-32.95q0-2.25 1.55-3.85 1.6-1.65 3.9-1.65h33q2.25 0 3.9 1.65 1.6 1.6 1.6 3.85v32.95q0 2.35-1.6 3.95-1.65 1.55-3.9 1.55zm52.15 0h-32.95q-2.3 0-3.9-1.55-1.6-1.6-1.6-3.95v-32.95q0-2.25 1.6-3.85 1.6-1.65 3.9-1.65h32.95q2.3 0 3.95 1.65 1.55 1.6 1.55 3.85v32.95q0 2.35-1.55 3.95-1.65 1.55-3.95 1.55zm-6.85 50.85h32.95q2.3 0 3.95-1.6 1.55-1.6 1.55-3.9v-32.95q0-2.3-1.55-3.85-1.65-1.65-3.95-1.65h-32.95q-2.35 0-3.9 1.65-1.6 1.55-1.6 3.85v32.95q0 2.3 1.6 3.9 1.55 1.6 3.9 1.6zm-52.2 0h33q2.25 0 3.9-1.6 1.55-1.6 1.55-3.9v-32.95q0-2.3-1.55-3.85-1.65-1.65-3.9-1.65h-33q-2.3 0-3.9 1.65-1.6 1.55-1.6 3.85v32.95q0 2.3 1.6 3.9t3.9 1.6zm12.4 50.8h32.95q2.25 0 3.9-1.6 1.6-1.55 1.6-3.9v-32.95q0-2.3-1.6-3.85-1.65-1.65-3.9-1.65h-32.95q-2.35 0-3.95 1.65-1.55 1.55-1.55 3.85v32.95q0 2.35 1.55 3.9 1.6 1.6 3.95 1.6zm52.15 0h32.95q2.3 0 3.95-1.6 1.55-1.55 1.55-3.9v-32.95q0-2.3-1.55-3.85-1.65-1.65-3.95-1.65h-32.95q-2.3 0-3.9 1.65-1.6 1.55-1.6 3.85v32.95q0 2.35 1.6 3.9 1.6 1.6 3.9 1.6zm39.85-50.8h32.95q2.25 0 3.9-1.6 1.6-1.6 1.6-3.9v-32.95q0-2.3-1.6-3.85-1.65-1.65-3.9-1.65h-32.95q-2.35 0-3.95 1.65-1.55 1.55-1.55 3.85v32.95q0 2.3 1.55 3.9 1.6 1.6 3.95 1.6zm12.35 50.8h32.95q2.25 0 3.9-1.6 1.6-1.55 1.6-3.9v-32.95q0-2.3-1.6-3.85-1.65-1.65-3.9-1.65h-32.95q-2.35 0-3.9 1.65-1.6 1.55-1.6 3.85v32.95q0 2.35 1.6 3.9 1.55 1.6 3.9 1.6zm27.45 50.8h32.95q2.3 0 3.95-1.6 1.55-1.55 1.55-3.9v-32.95q0-2.25-1.55-3.85-1.65-1.65-3.95-1.65h-32.95q-2.3 0-3.9 1.65-1.6 1.6-1.6 3.85v32.95q0 2.35 1.6 3.9 1.6 1.6 3.9 1.6zm-52.15 0h32.95q2.25 0 3.9-1.6 1.6-1.55 1.6-3.9v-32.95q0-2.25-1.6-3.85-1.65-1.65-3.9-1.65h-32.95q-2.35 0-3.95 1.65-1.55 1.6-1.55 3.85v32.95q0 2.35 1.55 3.9 1.6 1.6 3.95 1.6zm-52.2 0h32.95q2.25 0 3.9-1.6 1.6-1.55 1.6-3.9v-32.95q0-2.25-1.6-3.85-1.65-1.65-3.9-1.65h-32.95q-2.35 0-3.9 1.65-1.6 1.6-1.6 3.85v32.95q0 2.35 1.6 3.9 1.55 1.6 3.9 1.6zm-52.2 0h32.95q2.3 0 3.95-1.6 1.55-1.55 1.55-3.9v-32.95q0-2.25-1.55-3.85-1.65-1.65-3.95-1.65h-32.95q-2.35 0-3.9 1.65-1.6 1.6-1.6 3.85v32.95q0 2.35 1.6 3.9 1.55 1.6 3.9 1.6zm260.95 0h32.95q2.25 0 3.9-1.6 1.6-1.55 1.6-3.9v-32.95q0-2.25-1.6-3.85-1.65-1.65-3.9-1.65h-32.95q-2.35 0-3.95 1.65-1.55 1.6-1.55 3.85v32.95q0 2.35 1.55 3.9 1.6 1.6 3.95 1.6zm-5.5 6.85h-46.7q-2.35 0-3.9 1.65-1.6 1.6-1.6 3.85v32.95q0 2.35 1.6 3.95 1.55 1.55 3.9 1.55h46.7q2.25 0 3.9-1.55 1.6-1.6 1.6-3.95v-32.95q0-2.25-1.6-3.85-1.65-1.65-3.9-1.65zm52.2 0h-33q-2.3 0-3.9 1.65-1.55 1.6-1.55 3.85v32.95q0 2.35 1.55 3.95 1.6 1.55 3.9 1.55h33q2.25 0 3.9-1.55 1.55-1.6 1.55-3.95v-32.95q0-2.25-1.55-3.85-1.65-1.65-3.9-1.65zm-98.9-6.85h32.95q2.25 0 3.9-1.6 1.6-1.55 1.6-3.9v-32.95q0-2.25-1.6-3.85-1.65-1.65-3.9-1.65h-32.95q-2.35 0-3.9 1.65-1.6 1.6-1.6 3.85v32.95q0 2.35 1.6 3.9 1.55 1.6 3.9 1.6zm-260.95 6.85h241.7q2.3 0 3.95 1.65 1.55 1.6 1.55 3.85v32.95q0 2.35-1.55 3.95-1.65 1.55-3.95 1.55h-241.7q-2.3 0-3.9-1.55-1.55-1.6-1.55-3.95v-32.95q0-2.25 1.55-3.85 1.6-1.65 3.9-1.65zm45.35-210.1h-32.95q-2.35 0-3.95-1.6-1.55-1.55-1.55-3.9v-32.95q0-2.25 1.55-3.85 1.6-1.65 3.95-1.65h32.95q2.25 0 3.9 1.65 1.6 1.6 1.6 3.85v32.95q0 2.35-1.6 3.9-1.65 1.6-3.9 1.6zm-52.2 0h-32.95q-2.35 0-3.9-1.6-1.6-1.55-1.6-3.9v-32.95q0-2.25 1.6-3.85 1.55-1.65 3.9-1.65h32.95q2.25 0 3.9 1.65 1.6 1.6 1.6 3.85v32.95q0 2.35-1.6 3.9-1.65 1.6-3.9 1.6zm26.1 50.8h-32.95q-2.35 0-3.95-1.55-1.55-1.6-1.55-3.95v-32.95q0-2.25 1.55-3.85 1.6-1.65 3.95-1.65h32.95q2.25 0 3.9 1.65 1.6 1.6 1.6 3.85v32.95q0 2.35-1.6 3.95-1.65 1.55-3.9 1.55zm-78.3-50.8h-32.95q-2.3 0-3.9-1.6-1.6-1.55-1.6-3.9v-32.95q0-2.25 1.6-3.85 1.6-1.65 3.9-1.65h32.95q2.3 0 3.95 1.65 1.55 1.6 1.55 3.85v32.95q0 2.35-1.55 3.9-1.65 1.6-3.95 1.6zm-26.05 50.8h-33q-2.3 0-3.9-1.55-1.6-1.6-1.6-3.95v-32.95q0-2.25 1.6-3.85 1.6-1.65 3.9-1.65h33q2.25 0 3.9 1.65 1.55 1.6 1.55 3.85v32.95q0 2.35-1.55 3.95-1.65 1.55-3.9 1.55zm52.15 0h-32.95q-2.35 0-3.9-1.55-1.6-1.6-1.6-3.95v-32.95q0-2.25 1.6-3.85 1.55-1.65 3.9-1.65h32.95q2.3 0 3.95 1.65 1.55 1.6 1.55 3.85v32.95q0 2.35-1.55 3.95-1.65 1.55-3.95 1.55zm-6.85 50.85h32.95q2.25 0 3.9-1.6 1.6-1.6 1.6-3.9v-32.95q0-2.3-1.6-3.85-1.65-1.65-3.9-1.65h-32.95q-2.35 0-3.9 1.65-1.6 1.55-1.6 3.85v32.95q0 2.3 1.6 3.9 1.55 1.6 3.9 1.6zm-52.2 0h32.95q2.3 0 3.95-1.6 1.55-1.6 1.55-3.9v-32.95q0-2.3-1.55-3.85-1.65-1.65-3.95-1.65h-32.95q-2.3 0-3.9 1.65-1.6 1.55-1.6 3.85v32.95q0 2.3 1.6 3.9t3.9 1.6zm12.35 50.8h33q2.25 0 3.9-1.6 1.55-1.55 1.55-3.9v-32.95q0-2.3-1.55-3.85-1.65-1.65-3.9-1.65h-33q-2.3 0-3.9 1.65-1.55 1.55-1.55 3.85v32.95q0 2.35 1.55 3.9 1.6 1.6 3.9 1.6zm52.2 0h32.95q2.3 0 3.95-1.6 1.55-1.55 1.55-3.9v-32.95q0-2.3-1.55-3.85-1.65-1.65-3.95-1.65h-32.95q-2.35 0-3.9 1.65-1.6 1.55-1.6 3.85v32.95q0 2.35 1.6 3.9 1.55 1.6 3.9 1.6zm39.85-50.8h32.95q2.25 0 3.9-1.6 1.6-1.6 1.6-3.9v-32.95q0-2.3-1.6-3.85-1.65-1.65-3.9-1.65h-32.95q-2.35 0-3.95 1.65-1.55 1.55-1.55 3.85v32.95q0 2.3 1.55 3.9 1.6 1.6 3.95 1.6zm12.35 50.8h32.95q2.25 0 3.9-1.6 1.6-1.55 1.6-3.9v-32.95q0-2.3-1.6-3.85-1.65-1.65-3.9-1.65h-32.95q-2.35 0-3.9 1.65-1.6 1.55-1.6 3.85v32.95q0 2.35 1.6 3.9 1.55 1.6 3.9 1.6zm-135.95-152.45h-33q-2.3 0-3.9-1.6-1.55-1.55-1.55-3.9v-32.95q0-2.25 1.55-3.85 1.6-1.65 3.9-1.65h33q2.25 0 3.9 1.65 1.6 1.6 1.6 3.85v32.95q0 2.35-1.6 3.9-1.65 1.6-3.9 1.6zm-50.85 0h-60.4q-2.35 0-3.9-1.6-1.6-1.55-1.6-3.9v-21.95q0-6.8 4.8-11.6 4.8-4.9 11.7-4.9h49.4q2.3 0 3.95 1.65 1.55 1.6 1.55 3.85v32.95q0 2.35-1.55 3.9-1.65 1.6-3.95 1.6zm24.75 50.8h-32.95q-2.35 0-3.95-1.55-1.55-1.6-1.55-3.95v-32.95q0-2.25 1.55-3.85 1.6-1.65 3.95-1.65h32.95q2.25 0 3.9 1.65 1.6 1.6 1.6 3.85v32.95q0 2.35-1.6 3.95-1.65 1.55-3.9 1.55zm-52.2 0h-32.95q-2.35 0-3.9-1.55-1.6-1.6-1.6-3.95v-32.95q0-2.25 1.6-3.85 1.55-1.65 3.9-1.65h32.95q2.25 0 3.9 1.65 1.6 1.6 1.6 3.85v32.95q0 2.35-1.6 3.95-1.65 1.55-3.9 1.55zm-32.95 50.85h60.4q2.3 0 3.95-1.6 1.55-1.6 1.55-3.9v-32.95q0-2.3-1.55-3.85-1.65-1.65-3.95-1.65h-60.4q-2.35 0-3.9 1.65-1.6 1.55-1.6 3.85v32.95q0 2.3 1.6 3.9 1.55 1.6 3.9 1.6zm0 50.8h72.8q2.25 0 3.9-1.6 1.55-1.55 1.55-3.9v-32.95q0-2.3-1.55-3.85-1.65-1.65-3.9-1.65h-72.8q-2.35 0-3.9 1.65-1.6 1.55-1.6 3.85v32.95q0 2.35 1.6 3.9 1.55 1.6 3.9 1.6zm78.25-50.8h33q2.25 0 3.9-1.6 1.6-1.6 1.6-3.9v-32.95q0-2.3-1.6-3.85-1.65-1.65-3.9-1.65h-33q-2.3 0-3.9 1.65-1.55 1.55-1.55 3.85v32.95q0 2.3 1.55 3.9 1.6 1.6 3.9 1.6zm12.4 50.8h32.95q2.25 0 3.9-1.6 1.6-1.55 1.6-3.9v-32.95q0-2.3-1.6-3.85-1.65-1.65-3.9-1.65h-32.95q-2.35 0-3.95 1.65-1.55 1.55-1.55 3.85v32.95q0 2.35 1.55 3.9 1.6 1.6 3.95 1.6zm-90.65 50.8h98.85q2.3 0 3.95-1.6 1.55-1.55 1.55-3.9v-32.95q0-2.25-1.55-3.85-1.65-1.65-3.95-1.65h-98.85q-2.35 0-3.9 1.65-1.6 1.6-1.6 3.85v32.95q0 2.35 1.6 3.9 1.55 1.6 3.9 1.6zm118.1 0h32.95q2.3 0 3.9-1.6 1.6-1.55 1.6-3.9v-32.95q0-2.25-1.6-3.85-1.6-1.65-3.9-1.65h-32.95q-2.35 0-3.9 1.65-1.6 1.6-1.6 3.85v32.95q0 2.35 1.6 3.9 1.55 1.6 3.9 1.6zm-65.9 6.85h32.95q2.25 0 3.9 1.65 1.6 1.6 1.6 3.85v32.95q0 2.35-1.6 3.95-1.65 1.55-3.9 1.55h-32.95q-2.35 0-3.95-1.55-1.55-1.6-1.55-3.95v-32.95q0-2.25 1.55-3.85 1.6-1.65 3.95-1.65zm52.15 0h33q2.25 0 3.9 1.65 1.55 1.6 1.55 3.85v32.95q0 2.35-1.55 3.95-1.65 1.55-3.9 1.55h-33q-2.3 0-3.9-1.55-1.6-1.6-1.6-3.95v-32.95q0-2.25 1.6-3.85 1.6-1.65 3.9-1.65zm-104.35 0h32.95q2.25 0 3.9 1.65 1.6 1.6 1.6 3.85v32.95q0 2.35-1.6 3.95-1.65 1.55-3.9 1.55h-21.95q-6.9 0-11.7-4.8t-4.8-11.65v-22q0-2.25 1.6-3.85 1.55-1.65 3.9-1.65zm222.45-6.85h33q2.25 0 3.9-1.6 1.55-1.55 1.55-3.9v-32.95q0-2.25-1.55-3.85-1.65-1.65-3.9-1.65h-33q-2.3 0-3.9 1.65-1.55 1.6-1.55 3.85v32.95q0 2.35 1.55 3.9 1.6 1.6 3.9 1.6zm-52.15 0h32.95q2.25 0 3.9-1.6 1.6-1.55 1.6-3.9v-32.95q0-2.25-1.6-3.85-1.65-1.65-3.9-1.65h-32.95q-2.35 0-3.95 1.65-1.55 1.6-1.55 3.85v32.95q0 2.35 1.55 3.9 1.6 1.6 3.95 1.6zm-13.75 6.85h46.7q2.25 0 3.9 1.65 1.6 1.6 1.6 3.85v32.95q0 2.35-1.6 3.95-1.65 1.55-3.9 1.55h-46.7q-2.35 0-3.9-1.55-1.6-1.6-1.6-3.95v-32.95q0-2.25 1.6-3.85 1.55-1.65 3.9-1.65z" fill="none" stroke="#383838" stroke-miterlimit="10" stroke-width="2"/>
</defs>
<g transform="matrix(1.3733 0 0 1.3733 -10.1 -95.85)">
<use xlink:href="#j"/>
</g>
<g transform="matrix(1.3733 0 0 1.3733 -10.1 -95.85)">
<use xlink:href="#i"/>
</g>
<g transform="matrix(1.3733 0 0 1.3733 -10.1 -95.85)">
<use xlink:href="#h"/>
</g>
<g transform="matrix(1.3733 0 0 1.3733 -10.1 -95.85)">
<use xlink:href="#g"/>
</g>
<g transform="matrix(1.3733 0 0 1.3733 -10.1 -95.85)">
<use xlink:href="#f"/>
</g>
<g transform="matrix(1.3733 0 0 1.3733 -10.1 -95.85)">
<use xlink:href="#e"/>
</g>
<g transform="matrix(1.3733 0 0 1.3733 -10.1 -95.85)">
<use xlink:href="#d"/>
</g>
<g transform="translate(-152.5 14.25)">
<use xlink:href="#c"/>
</g>
<g transform="translate(0 .25)">
<use xlink:href="#b"/>
</g>
<g>
<use xlink:href="#a"/>
</g>
</svg>
