<svg xmlns="http://www.w3.org/2000/svg" preserveAspectRatio="none" width="225" height="248" xmlns:v="https://vecta.io/nano"><style>.A{animation:balanceo 6s ease-in-out infinite;transform-origin:center}.B{animation-delay:0.15s}@keyframes balanceo{0%{transform:rotate(0deg)}25%{transform:rotate(15deg)}50%{transform:rotate(0deg)}75%{transform:rotate(-15deg)}100%{transform:rotate(0deg)}}</style><defs><path fill="#6e50eb" stroke="none" d="M207.05 60.2q-.5-.95-1.5-1.35L82.65 16.8q-1-.35-2.05.2-1 .5-1.35 1.5L21.9 186.35q-.35 1 .15 2 .5.95 1.55 1.4l122.85 42q.95.35 2-.15 1-.5 1.4-1.55l57.4-167.8q.3-1-.2-2.05z" id="A"/><g id="B" stroke="none"><path fill="#fff" d="M166.15 37.75q-.7-.75-1.85-.95L34.75 26.45q-1.2-.1-2.05.6-.75.6-.9 1.8l-14.05 176.8q-.2 1.1.5 1.95.7.8 1.8.95l129.6 10.4q1 .05 1.95-.6.75-.8.95-1.8l14.1-176.85q.2-1.1-.5-1.95M110.4 73.9q-.5-.55-.4-1.35 0-.65.6-1.1.5-.5 1.25-.4l32.85 2.55q.7 0 1.2.6.4.5.35 1.25Q145.8 77 144.3 77l-32.8-2.55q-.65 0-1.1-.55m.8-10.35q-.45-.6-.35-1.35 0-.7.6-1.15.5-.5 1.25-.4l32.85 2.55q.7 0 1.2.6.4.5.35 1.25-.45 1.55-1.95 1.55l-32.8-2.55q-.75 0-1.15-.5m-25.4-3.3l-4.15-.35.15-2.05 10.65.85-.15 2.05-4.2-.35-.85 10.55-2.3-.15.85-10.55m-10.55-2.9l2.3.15 4.7 13-2.45-.15-.95-3-6.3-.5-1.55 2.8-2.35-.15 6.6-12.15M64.7 56.5q2.5.25 3.75 1.5 1.3 1.3 1.1 3.4-.05 2.05-1.6 3.15-1.55 1.1-4 .85l-2.9-.15-.25 3.65-2.3-.15 1.05-12.6 5.15.35M50.15 68.05l-4.4-13 2.55.15 3.4 10.05 4.95-9.35 2.35.15-6.55 12.2-2.3-.2M34.75 187.1q-.65 0-1.1-.5-.5-.6-.4-1.35 0-.7.55-1.15.55-.5 1.3-.4l32.85 2.55q.7 0 1.1.6.5.5.35 1.25-.1.6-.7 1.15-.5.4-1.2.4l-32.75-2.55m34.55-57.85q.7 0 1.2.6.4.5.35 1.25-.35 1.55-1.7 1.55l-29.3-2.4q-.65 0-1.1-.5-.5-.6-.4-1.35 0-.7.55-1.1.55-.55 1.3-.45l29.1 2.4m-32.5 40q-.7 0-1.1-.55-.5-.6-.45-1.35 0-.7.6-1.1.5-.5 1.3-.45l50.2 4.1q.65 0 1.2.6.4.5.3 1.3-.55 1.5-1.85 1.5l-50.2-4.05m-.2-21.3q0-.7.6-1.1.55-.5 1.3-.45l37.95 3.1q.75 0 1.2.6.4.5.25 1.25 0 .6-.5 1.1-.55.45-1.2.45l-38.05-3.05q-.7 0-1.1-.55-.5-.6-.45-1.35m3.35-36q-.5-.6-.45-1.25 0-.7.6-1.2.5-.5 1.3-.45l98.2 7.95q.65 0 1.2.55.4.55.3 1.3-.4 1.55-1.7 1.55l-98.35-7.95q-.7 0-1.1-.5m47.5 38.8q.5-.5 1.25-.4l46.95 3.75q.7 0 1.2.6.45.5.35 1.25-.1.6-.65 1.1-.55.45-1.2.45l-47-3.75q-.65 0-1.1-.5-.5-.6-.4-1.4 0-.65.6-1.1m-7.6-17.45q-.85 0-1.25-.5-.45-.6-.3-1.35 0-.85.6-1.3.55-.4 1.3-.25l60.05 5.1q.8 0 1.2.6.45.55.25 1.3 0 .6-.5 1.1-.5.4-1.2.4l-60.15-5.1M64.4 58.5l-2.75-.15-.4 4.95 2.7.15q3.15.25 3.3-2.2.3-2.45-2.85-2.75m9 6.6l4.7.3-1.9-5.6-2.8 5.3z"/><path fill="#233863" d="M78.6 132.8q.4.5 1.25.5l60.15 5.1q.7 0 1.2-.4.5-.5.5-1.1.2-.75-.25-1.3-.4-.6-1.2-.6l-60.05-5.1q-.75-.15-1.3.25-.6.45-.6 1.3-.15.75.3 1.35m10.1 17.55q-.75-.1-1.25.4-.6.45-.6 1.1-.1.8.4 1.4.45.5 1.1.5l47 3.75q.65 0 1.2-.45.55-.5.65-1.1.1-.75-.35-1.25-.5-.6-1.2-.6l-46.95-3.75M39.5 110.7q-.05.65.45 1.25.4.5 1.1.5l98.35 7.95q1.3 0 1.7-1.55.1-.75-.3-1.3-.55-.55-1.2-.55l-98.2-7.95q-.8-.05-1.3.45-.6.5-.6 1.2m-2.3 36.15q-.6.4-.6 1.1-.05.75.45 1.35.4.55 1.1.55l38.05 3.05q.65 0 1.2-.45.5-.5.5-1.1.15-.75-.25-1.25-.45-.6-1.2-.6l-37.95-3.1q-.75-.05-1.3.45m-1.5 21.85q.4.55 1.1.55L87 173.3q1.3 0 1.85-1.5.1-.8-.3-1.3-.55-.6-1.2-.6l-50.2-4.1q-.8-.05-1.3.45-.6.4-.6 1.1-.05.75.45 1.35m34.8-38.85q-.5-.6-1.2-.6l-29.1-2.4q-.75-.1-1.3.45-.55.4-.55 1.1-.1.75.4 1.35.45.5 1.1.5l29.3 2.4q1.35 0 1.7-1.55.05-.75-.35-1.25m-24.75-74.8l4.4 13 2.3.2L59 56.05l-2.35-.15-4.95 9.35-3.4-10.05-2.55-.15M68.45 58q-1.25-1.25-3.75-1.5l-5.15-.35-1.05 12.6 2.3.15.25-3.65 2.9.15q2.45.25 4-.85 1.55-1.1 1.6-3.15.2-2.1-1.1-3.4m-6.8.35l2.75.15q3.15.3 2.85 2.75-.15 2.45-3.3 2.2l-2.7-.15.4-4.95m15.9-.85l-2.3-.15-6.6 12.15 2.35.15 1.55-2.8 6.3.5.95 3 2.45.15-4.7-13m.55 7.9l-4.7-.3 2.8-5.3 1.9 5.6m3.55-5.5l4.15.35-.85 10.55 2.3.15.85-10.55 4.2.35.15-2.05-10.65-.85-.15 2.05z"/><path fill="#6e50eb" d="M33.65 186.6q.45.5 1.1.5l32.75 2.55q.7 0 1.2-.4.6-.55.7-1.15.15-.75-.35-1.25-.4-.6-1.1-.6L35.1 183.7q-.75-.1-1.3.4-.55.45-.55 1.15-.1.75.4 1.35m77.2-124.4q-.1.75.35 1.35.4.5 1.15.5l32.8 2.55q1.5 0 1.95-1.55.05-.75-.35-1.25-.5-.6-1.2-.6l-32.85-2.55q-.75-.1-1.25.4-.6.45-.6 1.15M110 72.55q-.1.8.4 1.35.45.55 1.1.55L144.3 77q1.5 0 1.95-1.55.05-.75-.35-1.25-.5-.6-1.2-.6l-32.85-2.55q-.75-.1-1.25.4-.6.45-.6 1.1z"/></g><path id="C" stroke="#000" stroke-width="1" stroke-linejoin="round" fill="none" d="M146.45 231.75l-122.85-42q-1.05-.45-1.55-1.4-.5-1-.15-2L79.25 18.5q.35-1 1.35-1.5 1.05-.55 2.05-.2l122.9 42.05q1 .4 1.5 1.35.5 1.05.2 2.05l-57.4 167.8q-.4 1.05-1.4 1.55-1.05.5-2 .15z"/><path id="D" stroke="#000" stroke-width="1" stroke-linejoin="round" fill="none" d="M149.65 218.95l-129.6-10.4q-1.1-.15-1.8-.95-.7-.85-.5-1.95L31.8 28.85q.15-1.2.9-1.8.85-.7 2.05-.6L164.3 36.8q1.15.2 1.85.95.7.85.5 1.95l-14.1 176.85q-.2 1-.95 1.8-.95.65-1.95.6z"/></defs><g class="A"><use href="#A"/><use href="#C"/></g><g class="A B"><use href="#B"/><use href="#D"/></g></svg>